<?xml version="1.0" standalone="no"?>
<!DOCTYPE svg PUBLIC "-//W3C//DTD SVG 20010904//EN"
 "http://www.w3.org/TR/2001/REC-SVG-20010904/DTD/svg10.dtd">
<svg version="1.0" xmlns="http://www.w3.org/2000/svg"
 width="1024.000000pt" height="1024.000000pt" viewBox="0 0 1024.000000 1024.000000"
 preserveAspectRatio="xMidYMid meet">
<metadata>
Created by potrace 1.16, written by Peter Selinger 2001-2019
</metadata>
<g transform="translate(0.000000,1024.000000) scale(0.100000,-0.100000)"
fill="#000000" stroke="none">
<path d="M8166 9080 c-21 -11 -58 -35 -82 -55 -81 -67 -92 -69 -374 -73 -267
-4 -509 7 -720 32 -204 25 -394 45 -583 63 l-177 17 -143 -28 c-263 -53 -334
-65 -562 -90 -223 -25 -281 -39 -292 -72 -5 -14 167 -29 229 -20 24 4 70 11
103 16 33 5 139 19 235 30 96 12 218 31 270 43 79 18 122 22 255 20 88 -1 212
-9 275 -17 507 -72 1058 -96 1400 -62 307 30 297 30 304 0 4 -15 5 -28 2 -31
-16 -16 -332 -58 -516 -68 -206 -12 -773 25 -1175 76 -226 29 -403 29 -560 2
-112 -20 -226 -33 -437 -48 -49 -4 -88 -10 -88 -14 0 -9 285 -95 445 -135 55
-14 170 -48 256 -75 86 -27 181 -55 212 -61 53 -12 59 -12 101 11 51 27 61 23
46 -15 -5 -15 -10 -50 -10 -78 0 -44 -2 -49 -17 -43 -76 32 -437 141 -593 180
-80 19 -233 66 -340 104 -107 38 -238 83 -290 101 -52 17 -113 37 -135 45 -22
7 -80 25 -129 38 -84 23 -92 24 -130 10 -23 -8 -117 -41 -211 -73 -93 -32
-260 -91 -370 -130 -110 -40 -258 -91 -330 -115 -158 -52 -489 -166 -492 -169
-1 -1 -4 -128 -5 -281 l-3 -280 37 -20 38 -20 0 -691 0 -690 248 -98 c136 -55
319 -129 407 -166 88 -37 219 -90 290 -118 118 -46 292 -117 735 -298 85 -35
163 -64 173 -64 22 0 88 33 247 125 69 39 170 96 225 125 55 29 132 72 170 95
161 97 317 185 492 277 65 34 130 69 146 78 l27 17 6 549 c5 564 7 595 45 602
12 2 22 -12 35 -49 13 -35 27 -55 44 -62 15 -7 95 -11 205 -11 142 0 205 4
300 22 229 42 332 80 498 185 49 31 113 65 142 76 73 27 200 43 325 39 l106
-3 -8 -41 -9 -41 -132 1 c-144 1 -268 -20 -309 -53 l-22 -18 43 -71 c78 -130
151 -182 252 -182 l55 0 59 71 c76 90 107 143 146 249 41 114 56 189 68 356
12 164 0 355 -29 482 -47 199 -138 385 -240 488 -49 51 -50 52 -26 58 14 3 49
1 78 -5 54 -12 484 -7 595 7 47 6 75 26 58 42 -12 13 -206 21 -515 21 -311 0
-338 -1 -374 -19z m-2916 -365 c140 -47 287 -94 325 -104 l70 -19 -60 -27
c-33 -14 -137 -53 -232 -86 l-172 -59 -160 44 c-88 25 -211 61 -273 80 -62 20
-147 44 -188 54 l-75 19 30 15 c17 9 102 39 190 67 88 28 185 62 215 75 30 14
60 25 65 25 6 1 125 -37 265 -84z m1811 -159 c0 -5 -24 -17 -53 -26 -112 -35
-156 -77 -252 -244 -89 -156 -186 -272 -301 -362 -77 -61 -88 -74 -57 -74 39
0 172 -109 172 -142 0 -24 -3 -23 -65 16 -78 50 -125 72 -167 79 -36 6 -39 4
-129 -96 -51 -56 -111 -121 -133 -144 l-40 -42 51 6 c28 3 67 3 86 -1 42 -8
119 -73 137 -116 17 -40 -1 -105 -47 -173 -18 -27 -31 -52 -28 -56 3 -3 27 6
53 19 63 34 215 186 286 287 104 150 219 240 399 314 169 70 273 151 328 254
42 78 54 46 19 -49 -21 -54 -77 -122 -150 -179 l-35 -28 114 6 c151 8 204 19
316 64 198 80 298 165 370 316 23 50 51 114 61 143 23 67 44 69 44 5 0 -155
-46 -260 -170 -384 -74 -76 -98 -93 -190 -137 -176 -84 -239 -97 -480 -98
-234 0 -244 -2 -362 -82 -56 -38 -97 -79 -174 -173 -184 -225 -303 -319 -483
-379 -87 -29 -162 -21 -229 24 -89 59 -125 190 -83 303 48 129 224 320 518
564 102 85 245 273 287 377 49 120 108 174 229 207 56 15 157 16 158 1z
m-2653 -30 c53 -14 169 -45 257 -71 88 -26 200 -58 250 -71 49 -14 91 -26 93
-29 6 -6 -121 -67 -213 -103 -44 -17 -139 -54 -212 -82 -72 -28 -137 -57 -143
-65 -10 -12 -16 -11 -38 5 -15 11 -81 37 -147 59 -273 89 -505 177 -505 192 0
4 15 12 33 18 218 68 475 153 487 161 21 14 29 13 138 -14z m1472 -15 c52 -17
140 -41 195 -55 55 -14 133 -37 174 -51 40 -14 110 -35 154 -46 83 -21 137
-44 137 -57 0 -17 -58 -62 -150 -117 -52 -31 -99 -62 -105 -69 -26 -30 -58
-33 -110 -10 -27 12 -194 63 -370 113 -176 50 -360 104 -408 119 -84 28 -87
30 -60 40 15 6 111 41 213 78 102 36 192 70 200 75 22 12 27 12 130 -20z
m-621 -242 c58 -17 162 -48 231 -69 119 -37 396 -116 488 -140 26 -7 40 -15
36 -22 -7 -11 -379 -194 -478 -234 -33 -13 -69 -24 -81 -24 -43 0 -686 215
-810 271 l-50 22 35 15 c36 15 229 89 385 149 50 18 97 40 105 48 19 19 15 20
139 -16z m-1312 -100 c217 -77 445 -149 474 -149 18 0 19 -9 19 -204 l0 -205
-142 50 c-79 28 -190 66 -248 86 -92 31 -213 75 -360 132 -25 10 -44 21 -42
24 1 4 2 88 2 186 l0 180 53 -16 c28 -8 139 -46 244 -84z m2453 -47 c0 -12
-119 -124 -185 -175 -164 -124 -429 -441 -450 -537 -3 -15 -14 -35 -23 -43
-22 -19 -214 -98 -222 -91 -11 11 -12 394 -1 407 6 8 59 36 118 62 191 87 618
316 643 345 8 9 83 38 103 39 9 1 17 -3 17 -7z m-1679 -208 c74 -25 245 -84
382 -130 136 -46 261 -91 277 -99 l30 -16 0 -199 c0 -110 -2 -200 -5 -200 -4
0 -18 6 -33 14 -15 7 -47 21 -72 29 -25 9 -124 43 -220 77 -96 34 -256 91
-355 125 l-180 63 -3 191 -2 191 23 0 c13 0 84 -21 158 -46z m-945 -218 c27
-13 90 -36 139 -51 136 -41 272 -89 350 -125 126 -57 219 -92 305 -114 133
-35 415 -124 525 -166 55 -21 147 -56 205 -78 l105 -41 3 -655 c1 -361 -2
-656 -6 -656 -14 0 -159 55 -362 137 -107 44 -258 103 -335 133 -77 29 -144
58 -150 62 -6 6 -12 224 -15 598 -4 433 -8 592 -17 601 -6 6 -22 9 -36 5 -19
-4 -26 -14 -31 -43 -3 -21 -9 -280 -13 -575 -3 -296 -8 -538 -10 -538 -2 0
-86 35 -186 79 -100 43 -229 98 -287 121 -58 23 -134 54 -170 69 l-65 26 -3
618 c-1 339 -1 617 1 617 2 0 25 -11 53 -24z m2878 -448 c3 -40 7 -239 8 -442
l3 -369 -65 -29 c-71 -32 -146 -74 -445 -248 -253 -148 -527 -300 -583 -325
-37 -16 -45 -17 -53 -4 -5 8 -8 277 -7 663 l3 649 52 18 c29 10 72 31 97 48
25 17 46 31 49 31 2 0 10 -19 17 -42 31 -104 92 -178 186 -224 53 -26 69 -29
159 -29 91 0 106 3 167 32 134 63 290 190 359 293 19 27 37 50 40 50 4 0 9
-33 13 -72z"/>
<path d="M6055 7468 c-36 -12 -101 -72 -121 -110 -19 -36 -10 -69 31 -111 32
-33 107 -67 146 -67 10 0 35 15 55 33 118 103 126 200 20 248 -45 21 -86 23
-131 7z"/>
<path d="M8755 8950 c-204 -5 -210 -6 -213 -26 -3 -20 2 -21 112 -27 109 -5
327 4 422 19 34 5 44 11 44 25 0 17 -7 19 -77 17 -43 -1 -172 -5 -288 -8z"/>
<path d="M8688 8843 c-41 -2 -71 -9 -78 -18 -10 -12 -9 -16 3 -21 29 -11 581
0 601 12 10 6 14 14 9 17 -12 7 -448 16 -535 10z"/>
<path d="M8865 8729 c-163 -11 -210 -20 -210 -39 0 -13 29 -15 195 -13 280 4
424 22 396 50 -11 11 -230 12 -381 2z"/>
<path d="M8779 8600 c-26 -4 -57 -14 -70 -20 l-23 -13 24 -10 c28 -10 512 -1
569 11 41 9 51 27 19 36 -33 8 -464 5 -519 -4z"/>
<path d="M8842 8480 c-111 -10 -122 -13 -122 -40 0 -21 3 -21 123 -16 67 3
190 8 272 11 204 8 235 12 235 36 0 18 -10 19 -207 18 -115 -1 -250 -5 -301
-9z"/>
<path d="M8898 8350 c-119 -12 -148 -19 -148 -37 0 -15 22 -15 232 -9 211 6
364 19 377 31 15 15 -30 20 -197 21 -103 1 -222 -2 -264 -6z"/>
<path d="M8895 8233 c-92 -5 -125 -12 -125 -28 0 -13 36 -15 238 -15 261 0
342 6 342 25 0 7 -10 15 -22 19 -23 6 -315 5 -433 -1z"/>
<path d="M8847 8110 c-66 -6 -99 -22 -83 -37 11 -11 392 -6 499 6 95 11 117
18 96 32 -16 10 -412 9 -512 -1z"/>
<path d="M8823 7991 c-29 -4 -60 -14 -69 -23 -16 -16 -15 -17 11 -24 15 -4
141 -4 279 -1 253 5 322 15 297 40 -13 13 -425 20 -518 8z"/>
<path d="M8835 7857 c-96 -13 -115 -20 -115 -42 0 -12 39 -13 243 -9 291 6
347 11 347 29 0 8 -8 16 -17 19 -43 12 -373 14 -458 3z"/>
<path d="M8742 7708 c-33 -6 -52 -14 -49 -21 4 -14 529 -16 563 -3 19 7 19 8
0 22 -16 11 -64 14 -240 13 -122 -1 -245 -6 -274 -11z"/>
<path d="M8663 7583 c-29 -11 -12 -32 31 -38 56 -9 502 -2 511 7 4 4 5 14 2
23 -6 13 -41 15 -269 14 -145 0 -269 -3 -275 -6z"/>
<path d="M8667 7470 c-81 -8 -97 -14 -81 -30 26 -26 590 -23 581 4 -2 6 -24
14 -48 17 -79 12 -372 18 -452 9z"/>
<path d="M8436 7347 c-16 -11 -13 -15 27 -35 42 -21 55 -22 303 -22 251 1 407
15 361 33 -68 26 -660 47 -691 24z"/>
<path d="M4835 5344 c-11 -2 -45 -9 -75 -15 -125 -25 -274 -81 -615 -232 -110
-49 -206 -72 -420 -102 -101 -14 -228 -39 -282 -55 -192 -57 -404 -158 -533
-253 -90 -67 -390 -348 -495 -464 -120 -132 -128 -141 -347 -383 -97 -107
-216 -236 -265 -286 l-88 -91 -105 -6 c-115 -6 -188 -27 -259 -75 -56 -38
-408 -387 -427 -423 -13 -25 -13 -29 0 -29 24 0 162 110 373 297 108 95 127
107 159 99 33 -9 369 -339 627 -616 267 -287 330 -347 429 -413 l88 -59 -15
-28 c-8 -15 -106 -117 -217 -226 -349 -341 -439 -436 -436 -458 2 -12 10 -22
20 -24 37 -7 653 568 727 678 57 86 69 149 48 248 -16 76 -99 262 -117 262 -9
0 -150 -183 -150 -194 0 -14 44 -4 71 15 36 25 48 18 78 -45 24 -49 29 -136 8
-136 -19 0 -39 18 -95 86 -28 34 -71 73 -96 88 -25 15 -46 31 -46 36 0 9 60
93 163 225 34 44 73 96 87 116 44 63 303 372 354 422 51 50 168 112 272 144
50 15 94 18 289 17 127 0 295 -6 375 -14 292 -27 826 -9 1015 35 156 36 209
43 395 55 325 20 486 42 553 76 18 9 91 58 162 109 72 50 198 137 281 193 162
109 403 320 424 373 19 45 1 59 -75 59 -122 0 -252 -47 -406 -147 -40 -25
-120 -68 -178 -94 -58 -26 -147 -70 -198 -98 -50 -28 -96 -51 -101 -51 -17 0
-19 -22 -11 -95 12 -111 -11 -107 -50 9 l-18 51 -154 6 c-85 4 -229 7 -321 8
-409 3 -792 123 -990 310 -26 24 -38 44 -38 62 0 54 45 41 174 -53 108 -78
290 -164 378 -178 40 -6 136 -23 213 -36 128 -23 167 -26 453 -27 171 -1 312
0 312 3 0 11 93 62 200 110 63 28 198 95 300 149 220 118 269 134 388 129 100
-4 138 -23 167 -84 24 -50 16 -63 -123 -211 -109 -116 -294 -268 -432 -357
-25 -16 -95 -66 -157 -112 -134 -99 -147 -107 -257 -138 -81 -24 -195 -36
-566 -61 -131 -9 -172 -15 -285 -42 -101 -24 -126 -26 -295 -24 -102 1 -275
-3 -385 -9 -167 -9 -228 -8 -370 5 -479 45 -649 29 -824 -75 -66 -40 -106 -78
-196 -186 -38 -47 -38 -48 -10 -29 149 96 286 165 386 192 114 32 330 23 684
-26 165 -23 389 -57 498 -77 110 -19 204 -33 210 -31 7 2 -12 7 -40 11 -29 5
-53 11 -53 15 0 3 60 6 133 6 132 1 132 1 257 47 131 48 169 55 545 108 325
45 444 68 505 96 45 20 103 73 310 278 140 139 299 289 352 335 147 124 203
209 196 297 -8 91 -64 142 -179 164 -97 19 -157 13 -244 -24 -44 -19 -91 -37
-105 -41 -22 -6 -21 -3 10 22 19 15 81 72 138 125 57 54 109 98 116 98 44 0
60 84 27 148 -50 97 -204 106 -370 23 -69 -35 -162 -119 -237 -212 -95 -120
-169 -185 -292 -257 -115 -68 -273 -179 -287 -201 -3 -6 -11 -8 -17 -5 -6 4
-8 2 -4 -4 3 -6 2 -13 -4 -17 -6 -4 -8 -10 -5 -14 4 -8 -103 -22 -155 -20 -24
1 87 30 122 32 9 1 15 3 13 6 -8 7 65 92 135 158 37 34 102 105 146 158 43 53
94 106 113 117 69 43 74 133 10 193 -28 28 -36 30 -102 29 -128 -2 -213 -49
-401 -222 -102 -94 -159 -130 -296 -189 -130 -55 -207 -79 -341 -108 -112 -24
-114 -24 -155 -6 -23 11 -75 51 -116 90 -48 45 -84 71 -98 71 -12 0 -65 -18
-116 -41 -81 -35 -106 -53 -190 -132 -53 -50 -111 -102 -130 -115 -70 -47
-154 -76 -154 -53 0 19 154 183 236 250 136 113 243 160 466 207 68 14 146 32
173 40 28 8 87 21 131 28 100 18 226 66 287 109 71 51 163 161 183 219 24 74
16 191 -18 249 -36 61 -85 105 -137 124 -40 14 -146 19 -196 9z m149 -84 c32
-12 83 -65 107 -112 13 -25 19 -58 19 -102 0 -61 -2 -67 -47 -126 -53 -72 -89
-97 -151 -106 -61 -9 -116 10 -167 57 -58 53 -79 109 -73 194 2 36 3 65 1 65
-5 0 -190 -69 -228 -85 -89 -38 -145 -67 -145 -75 0 -38 48 -125 105 -189 35
-40 62 -78 59 -82 -10 -17 -35 -8 -75 28 -60 54 -98 115 -111 178 -10 54 -20
66 -34 44 -18 -30 -252 -101 -394 -119 -259 -34 -574 -156 -815 -315 -95 -63
-222 -183 -266 -251 -15 -23 -72 -78 -127 -122 -54 -44 -158 -143 -229 -219
-596 -632 -631 -670 -646 -700 -5 -13 -13 -23 -16 -23 -3 1 -44 37 -91 82 -61
57 -78 78 -60 73 14 -3 44 -9 67 -12 l42 -6 131 133 c71 72 185 193 252 268
228 256 651 693 758 784 157 133 443 280 650 333 36 9 143 30 239 46 253 42
352 70 508 143 193 90 324 141 466 180 170 48 222 55 271 36z m1556 -455 c17
-9 30 -17 30 -19 0 -3 2 -11 6 -19 4 -11 -9 -15 -60 -19 -112 -9 -183 -50
-311 -181 -197 -200 -310 -293 -518 -425 -45 -28 -59 -32 -107 -30 -30 2 -55
7 -55 13 0 10 105 84 300 212 77 50 138 104 265 232 163 165 228 214 319 241
43 13 100 11 131 -5z m-786 -75 c19 -7 26 -17 26 -35 0 -23 -4 -25 -42 -25
-24 0 -65 -11 -93 -24 -59 -27 -186 -126 -233 -182 -86 -100 -218 -184 -385
-244 -48 -18 -94 -38 -102 -46 -11 -11 -23 -12 -57 -5 -24 6 -74 15 -113 21
-154 23 -165 34 -43 45 146 12 383 93 499 170 37 25 107 83 156 128 132 123
225 182 312 197 25 4 47 8 48 9 1 0 13 -3 27 -9z"/>
<path d="M4865 5180 c-65 -21 -126 -49 -138 -65 -14 -18 2 -106 28 -150 28
-49 79 -85 119 -85 59 0 157 77 172 134 8 32 -10 93 -43 144 -32 49 -46 51
-138 22z"/>
<path d="M1354 3183 c-112 -93 -414 -381 -414 -395 0 -36 124 52 310 221 143
129 200 192 200 218 0 25 -26 13 -96 -44z"/>
<path d="M1484 3121 c-18 -11 -98 -82 -179 -158 -81 -76 -180 -167 -221 -202
-41 -36 -74 -73 -74 -83 0 -27 11 -23 81 29 159 117 455 391 447 415 -7 19
-21 19 -54 -1z"/>
<path d="M1577 3032 c-15 -10 -107 -91 -205 -179 -190 -172 -303 -296 -285
-314 8 -8 42 17 115 83 56 51 153 137 213 189 131 115 218 205 213 221 -7 19
-21 19 -51 0z"/>
<path d="M1673 2937 c-68 -38 -406 -352 -464 -431 -16 -21 -29 -50 -29 -63 0
-22 12 -14 98 63 289 261 452 417 452 435 0 13 -31 11 -57 -4z"/>
<path d="M1739 2828 c-100 -71 -479 -426 -479 -448 0 -17 45 -5 84 23 17 12
65 53 106 91 41 38 95 88 120 110 204 185 240 220 240 237 0 27 -21 23 -71
-13z"/>
<path d="M1844 2748 c-58 -45 -172 -146 -324 -289 -85 -80 -176 -158 -202
-173 -27 -15 -48 -34 -48 -42 0 -8 2 -14 5 -14 14 0 145 72 186 102 72 52 417
377 425 400 10 33 -10 41 -42 16z"/>
<path d="M1944 2657 c-26 -14 -204 -168 -267 -231 -29 -29 -99 -93 -157 -143
-140 -121 -177 -160 -163 -174 15 -15 239 157 403 310 197 184 230 217 230
229 0 16 -24 21 -46 9z"/>
<path d="M1930 2474 c-63 -58 -160 -144 -215 -192 -133 -114 -255 -234 -255
-249 0 -24 23 -13 114 56 212 159 510 436 504 467 -2 10 -10 20 -18 21 -8 2
-67 -44 -130 -103z"/>
<path d="M2053 2408 c-43 -41 -142 -131 -220 -201 -167 -150 -273 -262 -273
-288 0 -11 4 -19 8 -19 13 0 204 162 371 314 155 141 235 229 228 250 -9 28
-41 12 -114 -56z"/>
<path d="M2214 2358 c-115 -89 -515 -463 -535 -500 -28 -52 20 -32 122 50 110
88 423 375 454 416 41 54 14 76 -41 34z"/>
<path d="M2218 2189 c-68 -62 -157 -145 -198 -185 -41 -40 -97 -95 -125 -121
-60 -56 -115 -123 -115 -140 0 -26 27 -11 110 59 101 86 490 457 490 467 0 9
-22 31 -31 31 -4 0 -63 -50 -131 -111z"/>
<path d="M2335 2123 c-96 -85 -377 -366 -430 -431 -46 -55 -17 -59 51 -9 106
79 514 481 514 506 0 7 -23 21 -35 21 -2 0 -47 -39 -100 -87z"/>
</g>


</svg>
